# xmcd
#
# Track frame offsets:
# 150
# 12252
# 24798
# 36382
# 48158
# 57764
# 68753
# 81164
# 92258
# 106615
# 117647
# 131294
# 142543
# 155883
# 166362
# 179676
# 188821
# 200752
# 212189
# 225439
# 235554
# 245996
# 256601
# 270117
# 281439
#
# Disc length: 3880 seconds
#
# Revision: 0
# Processed by: cddbd v1.5.1PL0 Copyright (c) Steve Scherf et al.
# Submitted via: Audion 3.0.2 (http://www.panic.com/audion/)
#
DISCID=460f2619
DTITLE=Carlos Gardel - 100 por Gardel (Disco 3)
DYEAR=1900
DGENRE=
TTITLE0=Mi buenos aires querido
TTITLE1=Rencor
TTITLE2=Sueño querido
TTITLE3=Viejo Smoking
TTITLE4=Anclao en Paris
TTITLE5=Canchero
TTITLE6=Golondrinas
TTITLE7=Palermo
TTITLE8=Taconeando
TTITLE9=Barrio Reo
TTITLE10=La mariposa
TTITLE11=Aquel tapado de Armiño
TTITLE12=Sueño de Juventud
TTITLE13=Dandy
TTITLE14=Clavel del aire
TTITLE15=Tomo y ombligo
TTITLE16=Lo han visto con otra
TTITLE17=Arrabal amargo
TTITLE18=De puro guapo
TTITLE19=Madame Yvone
TTITLE20=Carnaval
TTITLE21=Soy una fiera
TTITLE22=Sentimiento Gaucho
TTITLE23=Recuerdo malevo
TTITLE24=Sobre el pucho
EXTD=
EXTT0=
EXTT1=
EXTT2=
EXTT3=
EXTT4=
EXTT5=
EXTT6=
EXTT7=
EXTT8=
EXTT9=
EXTT10=
EXTT11=
EXTT12=
EXTT13=
EXTT14=
EXTT15=
EXTT16=
EXTT17=
EXTT18=
EXTT19=
EXTT20=
EXTT21=
EXTT22=
EXTT23=
EXTT24=
PLAYORDER=
